<?xml version="1.0" encoding="UTF-8"?>
<svg id="a" data-name="Layer 1" xmlns="http://www.w3.org/2000/svg" viewBox="0 0 48 48">
  <path d="m43.7,22.07c-.22-.38-2.35-3.71-8.76-3.71h-.1c-4.45.02-6.98,2.21-8.22,3.77-.78-.18-1.63-.29-2.54-.29-1.17,0-2.43.2-3.76.55-.17-1.19-.41-2.52-.61-3.63l1.62-.54c.97-.32,1.62-1.24,1.61-2.25-.03-2.73-.38-6.3-1.9-7.78-2.09-2.03-7.14-2.39-10.38-.74-3.46,1.77-4.19,6.31-4.31,7.23-3.19,16.53-2.33,18.28-2.01,18.94,1.09,2.23,2.54,3.51,3.68,4.39,1.83,1.4,8.04,3.62,16.93,3.62s17.03-2.18,17.36-2.27c1.02-.28,1.72-1.21,1.72-2.27v-13.82c0-.42-.11-.83-.32-1.18Zm-4.39,13.16c-2.71.61-8.31,1.68-14.38,1.68-8.58,0-13.47-2.22-14.07-2.65-.77-.59-1.57-1.31-2.21-2.52-.17-1.76,1.05-9.7,2.32-16.26.01-.06.02-.13.03-.19.11-.95.69-3.1,1.78-3.65,1.64-.84,4.16-.51,4.87-.13.19.47.38,1.59.48,2.81l-4.25,1.42,1.05,3.13c.31,1.61.74,4.04.89,5.53.22,2.17-.89,4-.9,4.02l3.98,2.51c.14-.22.98-1.61,1.41-3.64,1.4-.48,2.69-.75,3.76-.75,3.89,0,5.81,3.38,5.89,3.52l4.14-2.23c-.07-.14-1.07-1.94-3.07-3.53.77-.61,1.99-1.22,3.82-1.23,2.54.02,3.87.67,4.45,1.11v11.05Z"/>
</svg>