<?xml version="1.0" encoding="UTF-8"?>
<svg id="Layer_2" data-name="Layer 2" xmlns="http://www.w3.org/2000/svg" height="48" viewBox="0 0 42.55 42.55" width="48">
  <g id="Layer_1-2" data-name="Layer 1">
    <g>
      <path d="m21.25,37.85c4.61,0,8.53-1.6,11.76-4.8,3.23-3.2,4.84-7.11,4.84-11.72,0-.86-.07-1.69-.2-2.48s-.3-1.53-.5-2.2c-.67.2-1.37.33-2.1.38s-1.53.08-2.39.08c-3.18,0-6.16-.64-8.96-1.93-2.8-1.28-5.2-3.14-7.2-5.58-1.1,2.6-2.68,4.88-4.73,6.83s-4.39,3.48-7.03,4.58v.35c0,4.61,1.6,8.51,4.81,11.7,3.21,3.2,7.1,4.8,11.69,4.8Zm.04,4.7c-2.93,0-5.69-.56-8.27-1.68-2.58-1.12-4.84-2.64-6.77-4.56-1.94-1.92-3.46-4.17-4.58-6.75-1.11-2.58-1.67-5.33-1.67-8.26s.56-5.68,1.67-8.26c1.11-2.58,2.64-4.83,4.57-6.75,1.94-1.92,4.19-3.45,6.78-4.59,2.58-1.13,5.35-1.7,8.28-1.7s5.69.57,8.26,1.7c2.57,1.13,4.81,2.66,6.74,4.58s3.45,4.17,4.57,6.75c1.12,2.58,1.68,5.34,1.68,8.28s-.56,5.69-1.67,8.27c-1.11,2.58-2.64,4.83-4.57,6.76-1.93,1.93-4.19,3.45-6.77,4.56-2.58,1.11-5.33,1.67-8.25,1.67ZM16.65,4.95c2.93,3.43,5.64,5.78,8.13,7.05,2.48,1.27,5.21,1.9,8.18,1.9.8,0,1.43-.02,1.9-.05s.98-.13,1.55-.3c-1.5-2.7-3.54-4.92-6.13-6.65s-5.59-2.6-9.03-2.6c-.9,0-1.75.07-2.55.2s-1.48.28-2.05.45Zm-11.95,12.45c1.6-.6,3.43-1.96,5.48-4.08s3.51-4.68,4.38-7.68c-2.9,1.3-5.09,2.96-6.58,4.98s-2.58,4.28-3.28,6.78Z"/>
      <path d="m17.12,21.43c.73-.8,1.39-1.72,1.94-2.81l-2.68-1.35c-1.39,2.74-3.32,4.09-6.28,4.39l.3,2.98c.73-.07,1.41-.22,2.07-.4.12.45.34.85.68,1.2.53.54,1.2.81,1.99.81s1.46-.27,2-.8c.54-.53.81-1.2.81-1.99s-.27-1.46-.8-2c-.01-.01-.02-.02-.03-.03Z"/>
      <path d="m33.24,21.65c-2.96-.29-4.89-1.65-6.28-4.39l-2.68,1.35c.47.93,1,1.74,1.6,2.46-.17.11-.33.23-.48.37-.54.53-.81,1.2-.81,1.99s.27,1.46.8,2c.53.54,1.2.81,1.99.81s1.47-.27,2.02-.8c.41-.4.67-.86.78-1.4.85.29,1.77.49,2.75.59l.3-2.98Z"/>
      <path d="m24.48,35.63c-.02-.52-.27-3.17-3.2-3.17s-3.2,2.85-3.2,3.17l-3-.07c.06-2.45,1.76-6.1,6.2-6.1s6.14,3.65,6.2,6.1l-3,.07Z"/>
    </g>
  </g>
</svg>