<?xml version="1.0" encoding="UTF-8"?>
<svg id="a" data-name="Layer 1" xmlns="http://www.w3.org/2000/svg" viewBox="0 0 48 48">
  <path d="m43.6,15.75c-1.12-2.58-2.64-4.83-4.57-6.75-1.93-1.92-4.18-3.44-6.74-4.58-2.57-1.13-5.32-1.7-8.26-1.7s-5.7.57-8.28,1.7c-2.58,1.13-4.84,2.66-6.78,4.59-1.94,1.92-3.46,4.17-4.58,6.75-1.11,2.58-1.67,5.33-1.67,8.26s.56,5.69,1.67,8.26c1.11,2.58,2.64,4.83,4.58,6.75,1.94,1.92,4.19,3.44,6.77,4.56,2.58,1.12,5.34,1.67,8.27,1.67s5.67-.56,8.25-1.67c2.58-1.11,4.83-2.63,6.77-4.56,1.93-1.93,3.46-4.18,4.57-6.76s1.67-5.34,1.67-8.27-.56-5.69-1.68-8.28ZM21.42,7.23c.8-.13,1.65-.2,2.55-.2,3.43,0,6.44.87,9.03,2.6s4.62,3.95,6.12,6.65c-.57.17-1.08.27-1.55.3-.47.03-1.1.05-1.9.05-2.97,0-5.69-.63-8.17-1.9s-5.19-3.62-8.12-7.05c.57-.17,1.25-.32,2.05-.45Zm-10.72,6.12c1.48-2.02,3.67-3.67,6.58-4.97-.87,3-2.33,5.56-4.38,7.67-2.05,2.12-3.88,3.47-5.48,4.08.7-2.5,1.79-4.76,3.28-6.78Zm8.57,23.98c0-1.95,2.33-2.36,4.29-2.36,1.37,0,4.55.22,4.55,2.3,0,1.05-.67,2.25-1.66,3.12-.8.11-1.62.18-2.47.18-1.17,0-2.29-.11-3.36-.31-.82-.83-1.34-1.93-1.34-2.93Zm16.46-1.56c-1.57,1.56-3.3,2.72-5.2,3.52.23-.65.36-1.33.36-2.02,0-3.19-2.74-5.09-7.34-5.09s-7.08,1.92-7.08,5.14c0,.54.09,1.08.24,1.62-1.6-.78-3.08-1.83-4.43-3.17-3.21-3.2-4.81-7.1-4.81-11.7v-.35c2-.83,3.82-1.91,5.48-3.24l.36.81c2.64-1.19,4.85-1.07,7.86.42l1.34-2.69c-1.82-.91-3.95-1.7-6.48-1.52,1.32-1.56,2.39-3.29,3.19-5.19,2,2.43,4.4,4.29,7.2,5.57.21.1.43.18.64.27-.72.24-1.47.58-2.23,1.02l1.5,2.6c2.51-1.45,4.72-1.55,7.86-.36l.62-1.63c.19,0,.38.01.58.01.86,0,1.66-.03,2.39-.08s1.43-.17,2.1-.38c.2.67.37,1.41.5,2.2.13.79.2,1.62.2,2.48,0,4.61-1.61,8.52-4.84,11.72Z"/>
  <path d="m17.89,23.38c-.79,0-1.46.27-2,.8-.54.53-.81,1.2-.81,1.99s.27,1.46.8,2c.53.54,1.2.81,1.99.81s1.46-.27,2-.8c.54-.53.81-1.2.81-1.99s-.27-1.46-.8-2c-.53-.54-1.2-.81-1.99-.81Z"/>
  <path d="m30.14,23.38c-.79,0-1.46.27-2,.8-.54.53-.81,1.2-.81,1.99s.27,1.46.8,2c.53.54,1.2.81,1.99.81s1.47-.27,2.02-.8.84-1.2.84-1.99-.27-1.46-.82-2c-.55-.54-1.22-.81-2.01-.81Z"/>
</svg>