<?xml version="1.0" encoding="UTF-8"?>
<svg id="a" data-name="Layer 1" xmlns="http://www.w3.org/2000/svg" viewBox="0 0 48 48">
  <path d="m35.84,11.43c-1.74-5.29-6.46-8.61-12.84-8.61-7.08,0-12.23,3.29-14.58,9.26-2.12,1.19-3.39,3.5-3.39,6.45,0,1.87.61,3.53,1.67,4.8-.16,6.2.4,12.62.62,15.12l.04.42c.36,4.18,2.77,6.3,7.14,6.3,4.04,0,6.75-2.58,6.78-6.43.24.01.47.03.69.03.3,0,.58,0,.85-.01v.96c0,3.61,2.89,6.12,7.03,6.12s6.74-2.48,6.74-6.16v-7.19c3.47-.42,6.17-3.38,6.17-6.96v-7.09c0-3.83-3.09-6.96-6.91-7.01Zm-26.7,7.1c0-1.36.43-3.02,2.47-3.21,1.45-.13,2.86-.2,4.24-.2s2.7.07,3.98.2h.21c1.76.01,3.19,1.44,3.19,3.2s-1.7,3.06-3.35,3.19c-2.38.19-5.82.4-8.12.02-1.64-.27-2.62-1.47-2.62-3.2Zm20.71,22.84c-.6,0-2.56-.12-2.56-1.65v-6.07s-2.62.45-2.62.45c-.01,0-1.13.19-2.71.19s-3.99-.59-4.92-1.25l-2.56,3.67c.64.45,1.45.82,2.32,1.12v.84c0,1.41-.69,2.02-2.31,2.02-2.17,0-2.54-.5-2.68-2.21l-.04-.43c-.19-2.11-.62-7.09-.63-12.26,1.17.19,2.5.26,3.87.26,1.78,0,3.61-.12,5.2-.25,4-.32,7.14-3.52,7.14-7.29,0-3.99-3.21-7.24-7.19-7.3-1.94-.19-3.98-.24-6.08-.17,1.93-2.49,4.92-3.75,8.92-3.75,5.7,0,9.11,3.33,9.11,8.9v23.49c0,.42,0,1.68-2.26,1.68Zm8.43-15.83c0,1.1-.71,2.03-1.69,2.38v-11.72s0-.09,0-.14c.99.35,1.7,1.28,1.7,2.38v7.09Z"/>
</svg>